REM DIRINDEX 1\2\5,1\2\6,1\2\7,1\2\8,1\3\9,1\3\10,1\3\11,1\4\12,1\4\13,1\4\14,1\4\15,1\4\16
REM DIRNAME folder01,folder02,folder03,folder04,folder05,folder06,folder07,folder08,folder09,folder10,folder11,folder12,folder13,folder14,folder15,folder16
TITLE ""
FILE "1200_sec02_0362_0369.mp3" MP3
  TRACK 01 AUDIO
    TITLE "0:"
    INDEX 01 00:00:00
  TRACK 02 AUDIO
    TITLE "12:cjc034_05087"
    INDEX 01 00:00:19
  TRACK 03 AUDIO
    TITLE "0:"
    INDEX 01 00:01:24
  TRACK 04 AUDIO
    TITLE "13:cjc034_05088"
    INDEX 01 00:01:60
  TRACK 05 AUDIO
    TITLE "0:"
    INDEX 01 00:04:21
  TRACK 06 AUDIO
    TITLE "14:cjc034_05089"
    INDEX 01 00:04:54
  TRACK 07 AUDIO
    TITLE "0:"
    INDEX 01 00:05:63
  TRACK 08 AUDIO
    TITLE "15:cjc034_05090"
    INDEX 01 00:06:20
  TRACK 09 AUDIO
    TITLE "0:"
    INDEX 01 00:10:72
  TRACK 10 AUDIO
    TITLE "12:cjc034_05091"
    INDEX 01 00:12:28
  TRACK 11 AUDIO
    TITLE "0:"
    INDEX 01 00:13:57
  TRACK 12 AUDIO
    TITLE "13:cjc034_05092"
    INDEX 01 00:14:15
  TRACK 13 AUDIO
    TITLE "0:"
    INDEX 01 00:16:55
  TRACK 14 AUDIO
    TITLE "14:cjc034_05093"
    INDEX 01 00:17:14
  TRACK 15 AUDIO
    TITLE "0:"
    INDEX 01 00:18:39
  TRACK 16 AUDIO
    TITLE "15:cjc034_05094"
    INDEX 01 00:18:74
  TRACK 17 AUDIO
    TITLE "0:"
    INDEX 01 00:22:21
  TRACK 18 AUDIO
    TITLE "12:cjc034_05095"
    INDEX 01 00:23:55
  TRACK 19 AUDIO
    TITLE "0:"
    INDEX 01 00:24:72
  TRACK 20 AUDIO
    TITLE "13:cjc034_05096"
    INDEX 01 00:25:33
  TRACK 21 AUDIO
    TITLE "0:"
    INDEX 01 00:26:64
  TRACK 22 AUDIO
    TITLE "14:cjc034_05097"
    INDEX 01 00:27:22
  TRACK 23 AUDIO
    TITLE "0:"
    INDEX 01 00:28:39
  TRACK 24 AUDIO
    TITLE "15:cjc034_05098"
    INDEX 01 00:28:74
  TRACK 25 AUDIO
    TITLE "0:"
    INDEX 01 00:33:19
  TRACK 26 AUDIO
    TITLE "16:cjc034_05099"
    INDEX 01 00:34:49
  TRACK 27 AUDIO
    TITLE "0:"
    INDEX 01 00:36:21
  TRACK 28 AUDIO
    TITLE "12:cjc034_05100"
    INDEX 01 00:37:24
  TRACK 29 AUDIO
    TITLE "0:"
    INDEX 01 00:38:61
  TRACK 30 AUDIO
    TITLE "13:cjc034_05101"
    INDEX 01 00:39:21
  TRACK 31 AUDIO
    TITLE "0:"
    INDEX 01 00:42:27
  TRACK 32 AUDIO
    TITLE "14:cjc034_05102"
    INDEX 01 00:42:61
  TRACK 33 AUDIO
    TITLE "0:"
    INDEX 01 00:44:24
  TRACK 34 AUDIO
    TITLE "15:cjc034_05103"
    INDEX 01 00:44:58
  TRACK 35 AUDIO
    TITLE "0:"
    INDEX 01 00:47:66
  TRACK 36 AUDIO
    TITLE "12:cjc034_05104"
    INDEX 01 00:49:25
  TRACK 37 AUDIO
    TITLE "0:"
    INDEX 01 00:50:46
  TRACK 38 AUDIO
    TITLE "13:cjc034_05105"
    INDEX 01 00:51:05
  TRACK 39 AUDIO
    TITLE "0:"
    INDEX 01 00:53:55
  TRACK 40 AUDIO
    TITLE "14:cjc034_05106"
    INDEX 01 00:54:11
  TRACK 41 AUDIO
    TITLE "0:"
    INDEX 01 00:55:30
  TRACK 42 AUDIO
    TITLE "15:cjc034_05107"
    INDEX 01 00:55:65
  TRACK 43 AUDIO
    TITLE "0:"
    INDEX 01 01:00:57
  TRACK 44 AUDIO
    TITLE "12:cjc034_05108"
    INDEX 01 01:02:14
  TRACK 45 AUDIO
    TITLE "0:"
    INDEX 01 01:03:22
  TRACK 46 AUDIO
    TITLE "13:cjc034_05109"
    INDEX 01 01:03:57
  TRACK 47 AUDIO
    TITLE "0:"
    INDEX 01 01:06:51
  TRACK 48 AUDIO
    TITLE "14:cjc034_05110"
    INDEX 01 01:07:10
  TRACK 49 AUDIO
    TITLE "0:"
    INDEX 01 01:08:15
  TRACK 50 AUDIO
    TITLE "15:cjc034_05111"
    INDEX 01 01:08:52
  TRACK 51 AUDIO
    TITLE "0:"
    INDEX 01 01:11:00
  TRACK 52 AUDIO
    TITLE "12:cjc034_05112"
    INDEX 01 01:12:32
  TRACK 53 AUDIO
    TITLE "0:"
    INDEX 01 01:13:40
  TRACK 54 AUDIO
    TITLE "13:cjc034_05113"
    INDEX 01 01:13:73
  TRACK 55 AUDIO
    TITLE "0:"
    INDEX 01 01:17:22
  TRACK 56 AUDIO
    TITLE "14:cjc034_05114"
    INDEX 01 01:17:55
  TRACK 57 AUDIO
    TITLE "0:"
    INDEX 01 01:18:60
  TRACK 58 AUDIO
    TITLE "15:cjc034_05115"
    INDEX 01 01:19:19
  TRACK 59 AUDIO
    TITLE "0:"
    INDEX 01 01:23:30
  TRACK 60 AUDIO
    TITLE "12:cjc034_05116"
    INDEX 01 01:24:65
  TRACK 61 AUDIO
    TITLE "0:"
    INDEX 01 01:26:03
  TRACK 62 AUDIO
    TITLE "13:cjc034_05117"
    INDEX 01 01:26:38
  TRACK 63 AUDIO
    TITLE "0:"
    INDEX 01 01:30:13
  TRACK 64 AUDIO
    TITLE "14:cjc034_05118"
    INDEX 01 01:30:44
  TRACK 65 AUDIO
    TITLE "0:"
    INDEX 01 01:31:57
  TRACK 66 AUDIO
    TITLE "15:cjc034_05119"
    INDEX 01 01:32:15
  TRACK 67 AUDIO
    TITLE "0:"
    INDEX 01 01:35:73
